<svg width="1200" height="630" viewBox="0 0 1200 630" xmlns="http://www.w3.org/2000/svg">
  <defs>
    <radialGradient id="glow" cx="12%" cy="8%" r="70%">
      <stop offset="0%" stop-color="#2F6BFF" stop-opacity="0.42"/>
      <stop offset="55%" stop-color="#2F6BFF" stop-opacity="0"/>
    </radialGradient>
  </defs>

  <rect width="1200" height="630" fill="#0F1B2D"/>
  <rect width="1200" height="630" fill="url(#glow)"/>

  <!-- Logo mark — glass pane + reflection + shine (B1) -->
  <g transform="translate(80,70) scale(1.25)" fill="none">
    <rect x="15" y="26" width="52" height="52" rx="11" stroke="#EEF4FB" stroke-width="3.4"/>
    <g stroke="#2F6BFF" stroke-width="5" stroke-linecap="round">
      <path d="M24 68 L44 44"/>
      <path d="M33 72 L53 48"/>
    </g>
    <path d="M70 14 L72.6 19.4 L78 22 L72.6 24.6 L70 30 L67.4 24.6 L62 22 L67.4 19.4 Z" fill="#2F6BFF"/>
  </g>

  <text x="196" y="140" font-family="Arial, sans-serif" font-size="26" font-weight="700" letter-spacing="3" fill="#2F6BFF">MOBILE WINDSHIELD SERVICE · SOUTHWEST FLORIDA</text>

  <!-- Headline -->
  <text x="76" y="330" font-family="Arial, sans-serif" font-size="104" font-weight="800" letter-spacing="-2" fill="#EEF4FB">Fort Myers</text>
  <text x="76" y="440" font-family="Arial, sans-serif" font-size="104" font-weight="800" letter-spacing="-2"><tspan fill="#EEF4FB">Auto</tspan><tspan fill="#2F6BFF" dx="34">Glass</tspan></text>

  <!-- Subtitle -->
  <text x="80" y="505" font-family="Arial, sans-serif" font-size="32" fill="#EEF4FB" fill-opacity="0.78">Windshield Replacement · Rock-Chip Repair · ADAS Calibration</text>

  <!-- Footer -->
  <rect x="80" y="548" width="1040" height="1.5" fill="#EEF4FB" fill-opacity="0.15"/>
  <text x="80" y="600" font-family="Arial, sans-serif" font-size="30" font-weight="700" fill="#EEF4FB">autoglassfortmyers.com</text>
  <g>
    <rect x="905" y="572" width="215" height="44" rx="22" fill="#2F6BFF"/>
    <text x="1012" y="601" text-anchor="middle" font-family="Arial, sans-serif" font-size="24" font-weight="700" fill="#ffffff">Free Quote</text>
  </g>
</svg>