<svg width="1200" height="630" viewBox="0 0 1200 630" xmlns="http://www.w3.org/2000/svg">
  <defs>
    <radialGradient id="glow" cx="12%" cy="8%" r="70%">
      <stop offset="0%" stop-color="#2F6BFF" stop-opacity="0.42"/>
      <stop offset="55%" stop-color="#2F6BFF" stop-opacity="0"/>
    </radialGradient>
  </defs>

  <rect width="1200" height="630" fill="#0F1B2D"/>
  <rect width="1200" height="630" fill="url(#glow)"/>

  <!-- Logo mark — windshield outline + tilted shine sparkle -->
  <g transform="translate(80,70) scale(1.25)" fill="none">
    <path d="M26 32 Q45 27 64 32 L70 60 Q45 66 20 60 Z" stroke="#EEF4FB" stroke-width="2.6" stroke-linejoin="round"/>
    <path d="M57 32 L59.5 38.5 L66 41 L59.5 43.5 L57 50 L54.5 43.5 L48 41 L54.5 38.5 Z" fill="#2F6BFF" transform="rotate(22.5 57 41)"/>
  </g>

  <text x="196" y="140" font-family="Arial, sans-serif" font-size="26" font-weight="700" letter-spacing="3" fill="#2F6BFF">MOBILE WINDSHIELD SERVICE · SOUTHWEST FLORIDA</text>

  <!-- Headline -->
  <text x="76" y="330" font-family="Arial, sans-serif" font-size="104" font-weight="800" letter-spacing="-2" fill="#EEF4FB">Fort Myers</text>
  <text x="76" y="440" font-family="Arial, sans-serif" font-size="104" font-weight="800" letter-spacing="-2"><tspan fill="#EEF4FB">Auto</tspan><tspan fill="#2F6BFF" dx="34">Glass</tspan></text>

  <!-- Subtitle -->
  <text x="80" y="505" font-family="Arial, sans-serif" font-size="32" fill="#EEF4FB" fill-opacity="0.78">Windshield Replacement · Rock-Chip Repair · ADAS Calibration</text>

  <!-- Footer -->
  <rect x="80" y="548" width="1040" height="1.5" fill="#EEF4FB" fill-opacity="0.15"/>
  <text x="80" y="600" font-family="Arial, sans-serif" font-size="30" font-weight="700" fill="#EEF4FB">autoglassfortmyers.com</text>
  <g>
    <rect x="905" y="572" width="215" height="44" rx="22" fill="#2F6BFF"/>
    <text x="1012" y="601" text-anchor="middle" font-family="Arial, sans-serif" font-size="24" font-weight="700" fill="#ffffff">Free Quote</text>
  </g>
</svg>